PathFileType	4	(X/Y/Z)	Patient5_TMGait_0pt45_1_right_06.trc.trc
DataRate	CameraRate	NumFrames	NumMarkers	Units	OrigDataRate	OrigDataStartFrame	OrigNumFrames
63.636363636364	63.636363636364	6	32	mm	63.636363636364	53	       141
Frame#	Time	R.ASIS			L.ASIS			Chest			R.Shoulder			Neck			L.Shoulder			L.Elbow			L.Wrist			R.Elbow			R.Wrist			L.Thigh.Superior			L.Thigh.Lateral			L.Thigh.Inferior			L.Patella			L.Shank.Superior			L.Shank.Lateral			L.Shank.Inferior			L.Heel			L.Midfoot.Lateral			L.Midfoot.Superior			L.Toe			R.Thigh.Superior			R.Thigh.Lateral			R.Thigh.Inferior			R.Patella			R.Shank.Superior			R.Shank.Lateral			R.Shank.Inferior			R.Heel			R.Midfoot.Lateral			R.Midfoot.Superior			R.Toe			
		X1	Y1	Z1	X2	Y2	Z2	X3	Y3	Z3	X4	Y4	Z4	X5	Y5	Z5	X6	Y6	Z6	X7	Y7	Z7	X8	Y8	Z8	X9	Y9	Z9	X10	Y10	Z10	X11	Y11	Z11	X12	Y12	Z12	X13	Y13	Z13	X14	Y14	Z14	X15	Y15	Z15	X16	Y16	Z16	X17	Y17	Z17	X18	Y18	Z18	X19	Y19	Z19	X20	Y20	Z20	X21	Y21	Z21	X22	Y22	Z22	X23	Y23	Z23	X24	Y24	Z24	X25	Y25	Z25	X26	Y26	Z26	X27	Y27	Z27	X28	Y28	Z28	X29	Y29	Z29	X30	Y30	Z30	X31	Y31	Z31	X32	Y32	Z32	

53	10.437142857143	986.290454481176	961.377514817848	595.623757766839	952.394710613240	960.659937814852	357.473803737544	1073.644333001204	1416.811439240291	498.363173596611	1007.118065827816	1473.652094752621	681.166311676035	954.289557091556	1548.027315747804	507.778302990914	987.056779682844	1504.452509344856	317.772408733702	850.376023370841	1207.754435720586	189.570872487953	930.158495147744	931.029846374084	161.109975945185	953.018304781012	1155.874264388402	833.351906786926	1155.645961596474	967.537559829347	746.027998897394	1038.053720008432	795.040101773642	338.511729291464	1008.793217557237	708.057111734261	285.075653227781	1102.650233006425	685.004666094112	346.924531623545	1156.314958771485	548.709508023444	333.331075100935	1090.922639123981	440.275769665643	352.935249151403	1004.062674375699	392.837977692819	279.747561942302	1028.732863686033	329.745801886922	362.386328429620	845.093265706186	132.083520377578	364.570052623931	922.694857070754	96.917160523007	295.625166059781	1033.031452025924	136.732986175575	331.533264549641	1127.774637454443	78.244754434453	323.485617141415	969.244440173074	727.466344835761	605.601626285498	873.673150865206	659.493548297586	659.365796892901	940.651326753487	600.076469893994	578.371977741386	930.255082960698	506.119365252909	602.359733473090	882.184597820751	417.784199830517	562.954261703624	813.797276182184	348.926769887579	643.946486429138	863.892510016665	279.977776041081	556.850390192351	739.310885295455	53.417958710879	513.731484311556	815.638135788358	24.934643271651	589.332990357070	922.286306454197	87.531496479230	567.715024806214	1026.126605794813	44.386372998494	571.492526202419	
54	10.452857142857	985.875259810898	960.340175838753	596.093337162312	953.641906056391	959.520079793833	357.548270063428	1075.925263304525	1415.588927591517	497.402361936550	1009.072950883869	1473.557973350487	679.714802596736	956.844964324492	1547.263432011640	505.852477757174	990.264748472182	1502.670352027466	316.134449691960	853.992738349945	1205.733798067600	188.171242016373	933.832250543892	929.030185225703	160.223278632302	954.249910992488	1156.496668811376	832.971560819604	1156.297180708818	968.034812863100	744.766613996333	1037.434658542554	792.929188701504	339.338047093718	1008.361672189171	706.084477707939	285.614241601479	1101.497202304249	682.817660031566	348.406011368220	1156.698778579702	550.012743994837	334.798480138453	1098.516142772221	439.993320628199	354.272856818868	1015.527699048468	386.141672351744	280.791935857658	1045.689707575371	324.725506222833	363.075426928334	878.812874758121	113.243956714398	365.445268021289	958.427422083527	84.015295169331	296.020744955973	1065.633110544404	131.931929554255	331.139742439902	1164.452695703167	80.648503311154	322.510830151088	966.722360779087	726.486097865664	605.580709884190	870.376981207941	659.317581601520	659.150336990806	936.889908212933	599.237373028555	578.373857073360	925.849729544098	505.393424374048	602.323902558482	877.107173239557	417.517227550681	562.828029898493	808.054605214181	349.164157652218	643.695903794707	857.988291961680	279.874036685265	556.894332773530	732.227825933667	53.464632854819	513.710480853244	808.478137915553	24.978766634678	589.328432928346	915.103943610130	87.413584207435	567.689800804785	1018.912676752796	44.435329601504	571.549649788367	
55	10.468571428571	985.634535179846	959.317550438509	596.572307225754	955.624671696272	958.061796767153	357.676224604195	1078.216106406342	1414.352679818524	496.267752076477	1010.771039095950	1473.382789310722	677.976797579794	959.328317835202	1546.374377371648	503.617176402142	993.579556246320	1500.773382893545	314.224227529087	857.979301034044	1203.474893109650	186.491741111385	937.857703259578	926.769179398367	159.103895197815	955.204587915660	1156.943762069679	832.168067630902	1156.745222764575	968.278081574113	743.412320950765	1036.811271190368	789.561706104035	339.490650349011	1007.043082556643	702.825896369299	286.046850918061	1099.755850373943	679.056782865332	349.232608443326	1155.713083263738	550.000896369756	336.084039441001	1104.742083779413	439.017938976033	355.764141963766	1026.083034319082	379.060936794677	281.983663315349	1061.622723703556	319.735463645377	363.992446041007	912.285950472527	96.098655153619	366.441401951228	993.671470172374	72.294243163197	296.940228844089	1097.278476638234	127.778582211927	331.510032949461	1199.487076519399	83.538706544484	322.898078590256	964.283516712275	725.482097078811	605.575404072307	867.100915661400	659.153851976779	658.882124177323	933.172037341354	598.384106244643	578.413902058607	921.461814334612	504.637358698292	602.303431368393	872.030482805014	417.209432748066	562.681781055056	802.240035006128	349.427046011963	643.370697432800	852.091410240522	279.764883741698	556.942442053847	725.124217595831	53.502753355331	513.689497522842	801.306752759263	25.022240720457	589.325934935212	907.907356411293	87.302623847449	567.677648249798	1011.686200044877	44.493576466432	571.586646909338	
56	10.484285714286	985.628716611679	958.353568205704	597.062747691073	958.414142635021	956.341397675485	357.834905048092	1080.499482138451	1413.127036388764	494.969372889507	1012.191026151723	1473.145172325470	675.932870897821	961.709218275101	1545.378028455646	501.066711278408	997.021205867202	1498.784569733288	312.041036859386	862.300926865534	1201.033548499301	184.505900958054	942.247019914820	924.311405453923	157.803739699738	955.857158716283	1157.212731049469	830.909276631215	1156.986153534259	968.216375253687	742.067518428253	1036.390083113454	785.064541256554	339.004008347304	1005.060398771028	698.377048270897	286.466980442526	1097.646404583401	673.891012045598	349.579588481630	1153.574000772342	548.720612382950	337.511994389798	1109.530735019339	437.302957975301	357.621049626575	1035.452355198409	371.799789604187	283.538590523884	1076.017253187563	314.829145077222	365.335346357408	944.122189380675	81.111723241292	367.542349975889	1027.136940541912	62.003069738061	298.415377359232	1126.908129456877	124.228649251939	332.832316036275	1231.841941299303	86.535579627683	324.854362451704	962.144116687174	724.475502838745	605.603150302161	864.045427352028	658.995691359535	658.534227567271	929.767440556977	597.511514388046	578.501923505289	917.313082043953	503.834313216672	602.306878760867	867.170878133350	416.821530287446	562.505357486616	796.516492376696	349.710164218702	642.945951833431	846.335297651964	279.609505446565	556.967791536203	718.003227489947	53.518522424657	513.663117666877	794.132231448231	25.058027189702	589.321281398386	900.705572892364	87.206480797762	567.685636345878	1004.463254361303	44.547128844537	571.593593063390	
57	10.500000000000	985.932735743337	957.485805119624	597.559473758502	962.034388243316	954.439088361562	357.972602206008	1082.747059439308	1411.954161331442	493.528141080697	1013.279647954045	1472.888440027935	673.577469454580	963.954697616418	1544.307565050445	498.194999863092	1000.603013568860	1496.729314735200	309.589081408812	866.951622340328	1198.459747000526	182.188937036482	947.009206229001	921.710892434088	156.367340066713	956.184620653111	1157.325925497907	829.184749926309	1157.020450589616	967.854493669439	740.794705268927	1036.404944086908	779.674450666914	338.001832171255	1002.764847232664	692.968538613321	286.968989725329	1095.447312533434	667.626124268484	349.713829946169	1150.611536167953	546.312516214848	339.407569977287	1112.911641812545	434.850297338054	360.018091548348	1043.412692960650	364.577824266949	285.614552491110	1088.389281456520	310.028677911432	367.252529756155	972.814221751030	68.649327954402	368.723102140489	1057.374893324550	53.267721945065	300.432895671439	1153.382864188547	121.073518082471	335.229010128219	1260.400344705210	89.020087991486	328.473660316573	960.522438489396	723.478742605324	605.636044933414	861.431002442312	658.830719390936	658.067258520875	926.939290622939	596.617063007534	578.611782863972	913.624348200041	502.968123625770	602.312811690525	862.739084665215	416.323226660935	562.274769417112	791.061362228858	350.012210599580	642.401696659297	840.848753581554	279.373981008339	556.935007296111	710.871991243065	53.504250443828	513.629082906261	786.965954030404	25.079284479338	589.309123133011	893.509888849103	87.132657413887	567.716462356440	997.259005888370	44.581453309557	571.569385156755	
58	10.515714285714	986.619751982426	956.738475505247	598.038053549457	966.452218697530	952.458752067592	358.021343017361	1084.926947233186	1410.898622340674	491.966745632804	1013.964991039597	1472.677460351506	670.920488060407	966.038116307094	1543.215026107331	494.999012640278	1004.319538375525	1494.647232408885	306.878243462105	871.952494458615	1195.799662642373	179.528252261717	952.154333391583	919.013001879352	154.832372630393	956.164137077056	1157.329653802499	827.000494423738	1156.855530080016	967.257696153889	739.614863797884	1037.099097628937	773.747407880378	336.700681365112	1000.621358854767	686.976218878148	287.634556915478	1093.486874196739	660.705800924732	349.954273292053	1147.255992283677	543.017441985929	342.033729936181	1115.018171969605	431.743397515296	363.049796836865	1049.857938172988	357.640980833309	288.253662605843	1098.353518801437	305.356630801436	369.797764839941	996.931529258064	58.945144384532	369.931445423323	1082.973608092876	46.095960155679	302.909722999930	1175.642668399086	117.995007407131	338.709027986926	1284.123002425090	90.239589842861	333.694224281061	959.593432856063	722.498166520289	605.604469168241	859.456224768125	658.645789092011	657.436499198137	924.895406687820	595.704650495551	578.684589095385	910.578084215017	502.029882768036	602.273872083101	858.906242022021	415.702568549032	561.957717112828	786.036733938474	350.339808046969	641.727201289012	835.732980907916	279.042616144641	556.810153314370	703.740113909220	53.465440338931	513.589222167142	779.820787292206	25.083074229392	589.283971225131	886.334237719009	87.088727702960	567.769394676362	990.085854366069	44.584836854953	571.521820197266	
